<svg xmlns="http://www.w3.org/2000/svg" width="17.842" height="20.05" viewBox="0 0 17.842 20.05">
  <g id="Group_4972" data-name="Group 4972" transform="translate(0.2 0.2)">
    <path id="Path_30782" data-name="Path 30782" d="M32.874,20.737H30v2.872h2.872Zm-.622,2.25H30.624V21.359h1.628Z" transform="translate(-25.414 -17.283)" fill="#969696" stroke="#969696" stroke-width="0.4"/>
    <path id="Path_30783" data-name="Path 30783" d="M55.022,20.737H52.15v2.872h2.872Zm-.622,2.25H52.772V21.359H54.4Z" transform="translate(-42.168 -17.283)" fill="#969696" stroke="#969696" stroke-width="0.4"/>
    <path id="Path_30784" data-name="Path 30784" d="M32.874,39.269H30v2.872h2.872Zm-.622,2.25H30.624V39.891h1.628Z" transform="translate(-25.414 -31.318)" fill="#969696" stroke="#969696" stroke-width="0.4"/>
    <path id="Path_30785" data-name="Path 30785" d="M55.022,39.269H52.15v2.872h2.872Zm-.622,2.25H52.772V39.891H54.4Z" transform="translate(-42.168 -31.318)" fill="#969696" stroke="#969696" stroke-width="0.4"/>
    <path id="Path_30786" data-name="Path 30786" d="M26.5,25.44V6.5H13.269V25.44H11.163v.71H28.605v-.71Zm-5.659,0H18.928V23.1H20.84Zm4.949,0H21.551V22.39H18.218v3.05H13.979V7.21h11.81Z" transform="translate(-11.163 -6.5)" fill="#969696" stroke="#969696" stroke-width="0.4"/>
  </g>
</svg>
