<svg xmlns="http://www.w3.org/2000/svg" width="19.157" height="20.155" viewBox="0 0 19.157 20.155">
  <g id="delete_1" transform="translate(-48.246 474.719)">
    <path id="Path_30881" data-name="Path 30881" d="M55.7-474.672a2.025,2.025,0,0,0-.936.493,2.112,2.112,0,0,0-.632,1.807v.585l-2.683.014c-2.618.014-2.692.018-2.849.111a.717.717,0,0,0-.355.678.706.706,0,0,0,.355.572c.143.1.2.106.885.106.544,0,.738.014.751.055s.207,2.955.433,6.491c.263,4.024.443,6.569.489,6.8a3.02,3.02,0,0,0,2.19,2.314c.281.078.562.083,4.495.083,4.716,0,4.43.018,5.145-.35a2.99,2.99,0,0,0,1.563-2.194c.028-.175.226-3.185.443-6.7s.4-6.412.41-6.445.207-.055.751-.055c.682,0,.742,0,.885-.106a.711.711,0,0,0,.355-.549.72.72,0,0,0-.341-.687l-.175-.111-2.678-.014-2.683-.014-.018-.7a2.583,2.583,0,0,0-.124-.968,2.1,2.1,0,0,0-1.189-1.152c-.258-.1-.337-.1-2.25-.111A20.592,20.592,0,0,0,55.7-474.672Zm4.2,1.637c.134.148.134.157.134.7v.553H55.61v-.549c0-.521,0-.558.115-.691a.519.519,0,0,1,.221-.157c.055-.014.936-.018,1.959-.014l1.862,0Zm4.006,2.877c0,.06-.175,2.96-.392,6.445-.267,4.3-.42,6.412-.461,6.574a1.6,1.6,0,0,1-1,1.042c-.152.046-1.116.06-4.273.06H53.7l-.254-.12a1.989,1.989,0,0,1-.419-.263,1.859,1.859,0,0,1-.479-.867c-.028-.189-.761-12.534-.761-12.811v-.161H63.908Z" fill="#fff"/>
    <path id="Path_30882" data-name="Path 30882" d="M176.846-324.9a1.356,1.356,0,0,0-.249.235c-.1.129-.1.143-.1,4.319s0,4.19.1,4.319a.733.733,0,0,0,1.235,0c.1-.129.1-.143.1-4.319s0-4.19-.1-4.319a.754.754,0,0,0-.618-.337A.641.641,0,0,0,176.846-324.9Z" transform="translate(-122.342 -142.817)" fill="#fff"/>
    <path id="Path_30883" data-name="Path 30883" d="M240.846-324.9a1.356,1.356,0,0,0-.249.235c-.1.129-.1.143-.1,4.319s0,4.19.1,4.319a.732.732,0,0,0,1.235,0c.1-.129.1-.143.1-4.319s0-4.19-.1-4.319a.754.754,0,0,0-.618-.337A.641.641,0,0,0,240.846-324.9Z" transform="translate(-183.391 -142.817)" fill="#fff"/>
    <path id="Path_30884" data-name="Path 30884" d="M304.846-324.9a1.355,1.355,0,0,0-.249.235c-.1.129-.1.143-.1,4.319s0,4.19.1,4.319a.733.733,0,0,0,1.235,0c.1-.129.1-.143.1-4.319s0-4.19-.1-4.319a.754.754,0,0,0-.618-.337A.641.641,0,0,0,304.846-324.9Z" transform="translate(-244.441 -142.817)" fill="#fff"/>
  </g>
</svg>
