<svg xmlns="http://www.w3.org/2000/svg" width="16.886" height="10" viewBox="0 0 16.886 10">
  <g id="Group_6113" data-name="Group 6113" transform="translate(-1009.5 -370)">
    <path id="Path_31431" data-name="Path 31431" d="M7.635-407.6a9.8,9.8,0,0,0-5.284,2.127,11.188,11.188,0,0,0-1.814,1.926,4.017,4.017,0,0,0-.538.937,5.749,5.749,0,0,0,.976,1.5,12.22,12.22,0,0,0,1.375,1.365,9.755,9.755,0,0,0,4.789,2.071,13.012,13.012,0,0,0,2.7-.016,9.721,9.721,0,0,0,4.466-1.877,12.2,12.2,0,0,0,1.6-1.544,5.817,5.817,0,0,0,.973-1.5,5.816,5.816,0,0,0-.973-1.5,11.95,11.95,0,0,0-1.616-1.55,9.535,9.535,0,0,0-3.529-1.685,8.176,8.176,0,0,0-2.177-.261C8.14-407.612,7.708-407.609,7.635-407.6Zm1.557.709a9,9,0,0,1,6.675,3.9l.264.389-.264.386a8.995,8.995,0,0,1-5.544,3.73,7.474,7.474,0,0,1-1.9.185,7.539,7.539,0,0,1-1.253-.073,8.823,8.823,0,0,1-5.049-2.53A7.959,7.959,0,0,1,.97-402.286l-.214-.323.2-.307a9.424,9.424,0,0,1,2.718-2.642A9.021,9.021,0,0,1,9.192-406.893Z" transform="translate(1009.5 777.609)" fill="#fff"/>
    <path id="Path_31432" data-name="Path 31432" d="M163.19-351.557a3.193,3.193,0,0,0-1.794.9,3.23,3.23,0,0,0-.844,1.491,3.6,3.6,0,0,0,0,1.478,3.217,3.217,0,0,0,2.464,2.365,3.959,3.959,0,0,0,1.349-.03,3.212,3.212,0,0,0,2.365-2.464,3.959,3.959,0,0,0-.03-1.349,3.263,3.263,0,0,0-.844-1.491,3.217,3.217,0,0,0-1.474-.838A4.09,4.09,0,0,0,163.19-351.557Zm1.042.762a2.418,2.418,0,0,1,1.837,2.371,2.42,2.42,0,0,1-2.444,2.444,2.416,2.416,0,0,1-2.444-2.444,2.434,2.434,0,0,1,2.609-2.447A3.035,3.035,0,0,1,164.232-350.8Z" transform="translate(854.318 723.424)" fill="#fff"/>
  </g>
</svg>
