<svg xmlns="http://www.w3.org/2000/svg" width="13.584" height="13.584" viewBox="0 0 13.584 13.584">
  <g id="link-72" transform="translate(-4.813 -4.812)">
    <path id="Path_30878" data-name="Path 30878" d="M11.6,17.813a1.409,1.409,0,0,0-.411.965,2.122,2.122,0,0,1,.911,3.541L9.852,24.571a2.124,2.124,0,0,1-3-3L8.507,19.91a4.275,4.275,0,0,1-.072-1.887,3.578,3.578,0,0,0-.335.291L5.848,20.567a3.54,3.54,0,0,0,5.006,5.006l2.253-2.253a3.536,3.536,0,0,0-1.212-5.8Z" transform="translate(0 -8.211)" fill="#969696"/>
    <path id="Path_30879" data-name="Path 30879" d="M20.121,5.848,17.868,8.1a3.536,3.536,0,0,0,1.212,5.8l.29-.29a1.4,1.4,0,0,0,.406-.966,2.123,2.123,0,0,1-.907-3.54l2.253-2.253a2.124,2.124,0,0,1,3,3l-1.66,1.66a4.272,4.272,0,0,1,.069,1.889,3.525,3.525,0,0,0,.339-.295l2.253-2.253a3.54,3.54,0,1,0-5.006-5.006Z" transform="translate(-7.765)" fill="#969696"/>
  </g>
</svg>
