<svg xmlns="http://www.w3.org/2000/svg" width="10.651" height="10.651" viewBox="0 0 10.651 10.651">
  <g id="search" transform="translate(-0.514 511.827)">
    <path id="Path_30844" data-name="Path 30844" d="M4.359-511.807a4.293,4.293,0,0,0-3.239,2.06A4.372,4.372,0,0,0,.551-508.2a5.541,5.541,0,0,0,.01,1.364,4.28,4.28,0,0,0,2.264,3.1,4,4,0,0,0,1.969.473,4.1,4.1,0,0,0,2.385-.719l.248-.165,1.45,1.444c.977.975,1.475,1.458,1.531,1.485a.661.661,0,0,0,.448,0,.548.548,0,0,0,.281-.66c-.035-.106-.112-.19-1.494-1.573l-1.456-1.46.16-.237a4.283,4.283,0,0,0,.462-3.893,4.516,4.516,0,0,0-.781-1.314,4.34,4.34,0,0,0-2.094-1.321A4.723,4.723,0,0,0,4.359-511.807Zm.744,1.062a3.1,3.1,0,0,1,1.964.933,3.113,3.113,0,0,1,.939,2.006,3.214,3.214,0,0,1-.548,2.079,3.845,3.845,0,0,1-.852.852,3.2,3.2,0,0,1-3.466.1,3.254,3.254,0,0,1-1.517-2.164,3.6,3.6,0,0,1,0-1.2,3.265,3.265,0,0,1,1.6-2.212A3.225,3.225,0,0,1,5.1-510.745Z" transform="translate(0 0)" fill="#898989"/>
  </g>
</svg>
